<?xml version="1.0" encoding="UTF-8"?>
<svg width="828px" height="419px" viewBox="0 0 828 419" version="1.1" xmlns="http://www.w3.org/2000/svg" xmlns:xlink="http://www.w3.org/1999/xlink">
    <!-- Generator: Sketch 62 (91390) - https://sketch.com -->
    <title>space-based</title>
    <desc>Created with Sketch.</desc>
    <defs>
        <rect id="path-1" x="0" y="0" width="252" height="212" rx="4"></rect>
        <filter x="-2.0%" y="-3.3%" width="105.6%" height="106.6%" filterUnits="objectBoundingBox" id="filter-2">
            <feOffset dx="2" dy="0" in="SourceAlpha" result="shadowOffsetOuter1"></feOffset>
            <feGaussianBlur stdDeviation="2" in="shadowOffsetOuter1" result="shadowBlurOuter1"></feGaussianBlur>
            <feColorMatrix values="0 0 0 0 0   0 0 0 0 0   0 0 0 0 0  0 0 0 0.5 0" type="matrix" in="shadowBlurOuter1"></feColorMatrix>
        </filter>
        <rect id="path-3" x="0" y="0" width="63" height="32" rx="4"></rect>
        <filter x="-7.9%" y="-21.9%" width="122.2%" height="143.8%" filterUnits="objectBoundingBox" id="filter-4">
            <feOffset dx="2" dy="0" in="SourceAlpha" result="shadowOffsetOuter1"></feOffset>
            <feGaussianBlur stdDeviation="2" in="shadowOffsetOuter1" result="shadowBlurOuter1"></feGaussianBlur>
            <feColorMatrix values="0 0 0 0 0   0 0 0 0 0   0 0 0 0 0  0 0 0 0.5 0" type="matrix" in="shadowBlurOuter1"></feColorMatrix>
        </filter>
        <rect id="path-5" x="85" y="0" width="63" height="32" rx="4"></rect>
        <filter x="-7.9%" y="-21.9%" width="122.2%" height="143.8%" filterUnits="objectBoundingBox" id="filter-6">
            <feOffset dx="2" dy="0" in="SourceAlpha" result="shadowOffsetOuter1"></feOffset>
            <feGaussianBlur stdDeviation="2" in="shadowOffsetOuter1" result="shadowBlurOuter1"></feGaussianBlur>
            <feColorMatrix values="0 0 0 0 0   0 0 0 0 0   0 0 0 0 0  0 0 0 0.5 0" type="matrix" in="shadowBlurOuter1"></feColorMatrix>
        </filter>
        <rect id="path-7" x="0" y="118" width="231" height="19" rx="4"></rect>
        <filter x="-2.2%" y="-36.8%" width="106.1%" height="173.7%" filterUnits="objectBoundingBox" id="filter-8">
            <feOffset dx="2" dy="0" in="SourceAlpha" result="shadowOffsetOuter1"></feOffset>
            <feGaussianBlur stdDeviation="2" in="shadowOffsetOuter1" result="shadowBlurOuter1"></feGaussianBlur>
            <feColorMatrix values="0 0 0 0 0   0 0 0 0 0   0 0 0 0 0  0 0 0 0.5 0" type="matrix" in="shadowBlurOuter1"></feColorMatrix>
        </filter>
        <rect id="path-9" x="168" y="0" width="63" height="32" rx="4"></rect>
        <filter x="-7.9%" y="-21.9%" width="122.2%" height="143.8%" filterUnits="objectBoundingBox" id="filter-10">
            <feOffset dx="2" dy="0" in="SourceAlpha" result="shadowOffsetOuter1"></feOffset>
            <feGaussianBlur stdDeviation="2" in="shadowOffsetOuter1" result="shadowBlurOuter1"></feGaussianBlur>
            <feColorMatrix values="0 0 0 0 0   0 0 0 0 0   0 0 0 0 0  0 0 0 0.5 0" type="matrix" in="shadowBlurOuter1"></feColorMatrix>
        </filter>
        <rect id="path-11" x="0" y="0" width="125" height="46" rx="4"></rect>
        <filter x="-4.0%" y="-15.2%" width="111.2%" height="130.4%" filterUnits="objectBoundingBox" id="filter-12">
            <feOffset dx="2" dy="0" in="SourceAlpha" result="shadowOffsetOuter1"></feOffset>
            <feGaussianBlur stdDeviation="2" in="shadowOffsetOuter1" result="shadowBlurOuter1"></feGaussianBlur>
            <feColorMatrix values="0 0 0 0 0   0 0 0 0 0   0 0 0 0 0  0 0 0 0.5 0" type="matrix" in="shadowBlurOuter1"></feColorMatrix>
        </filter>
        <rect id="path-13" x="0" y="0" width="252" height="212" rx="4"></rect>
        <filter x="-2.0%" y="-3.3%" width="105.6%" height="106.6%" filterUnits="objectBoundingBox" id="filter-14">
            <feOffset dx="2" dy="0" in="SourceAlpha" result="shadowOffsetOuter1"></feOffset>
            <feGaussianBlur stdDeviation="2" in="shadowOffsetOuter1" result="shadowBlurOuter1"></feGaussianBlur>
            <feColorMatrix values="0 0 0 0 0   0 0 0 0 0   0 0 0 0 0  0 0 0 0.5 0" type="matrix" in="shadowBlurOuter1"></feColorMatrix>
        </filter>
        <rect id="path-15" x="0" y="0" width="63" height="32" rx="4"></rect>
        <filter x="-7.9%" y="-21.9%" width="122.2%" height="143.8%" filterUnits="objectBoundingBox" id="filter-16">
            <feOffset dx="2" dy="0" in="SourceAlpha" result="shadowOffsetOuter1"></feOffset>
            <feGaussianBlur stdDeviation="2" in="shadowOffsetOuter1" result="shadowBlurOuter1"></feGaussianBlur>
            <feColorMatrix values="0 0 0 0 0   0 0 0 0 0   0 0 0 0 0  0 0 0 0.5 0" type="matrix" in="shadowBlurOuter1"></feColorMatrix>
        </filter>
        <rect id="path-17" x="85" y="0" width="63" height="32" rx="4"></rect>
        <filter x="-7.9%" y="-21.9%" width="122.2%" height="143.8%" filterUnits="objectBoundingBox" id="filter-18">
            <feOffset dx="2" dy="0" in="SourceAlpha" result="shadowOffsetOuter1"></feOffset>
            <feGaussianBlur stdDeviation="2" in="shadowOffsetOuter1" result="shadowBlurOuter1"></feGaussianBlur>
            <feColorMatrix values="0 0 0 0 0   0 0 0 0 0   0 0 0 0 0  0 0 0 0.5 0" type="matrix" in="shadowBlurOuter1"></feColorMatrix>
        </filter>
        <rect id="path-19" x="0" y="118" width="231" height="19" rx="4"></rect>
        <filter x="-2.2%" y="-36.8%" width="106.1%" height="173.7%" filterUnits="objectBoundingBox" id="filter-20">
            <feOffset dx="2" dy="0" in="SourceAlpha" result="shadowOffsetOuter1"></feOffset>
            <feGaussianBlur stdDeviation="2" in="shadowOffsetOuter1" result="shadowBlurOuter1"></feGaussianBlur>
            <feColorMatrix values="0 0 0 0 0   0 0 0 0 0   0 0 0 0 0  0 0 0 0.5 0" type="matrix" in="shadowBlurOuter1"></feColorMatrix>
        </filter>
        <rect id="path-21" x="168" y="0" width="63" height="32" rx="4"></rect>
        <filter x="-7.9%" y="-21.9%" width="122.2%" height="143.8%" filterUnits="objectBoundingBox" id="filter-22">
            <feOffset dx="2" dy="0" in="SourceAlpha" result="shadowOffsetOuter1"></feOffset>
            <feGaussianBlur stdDeviation="2" in="shadowOffsetOuter1" result="shadowBlurOuter1"></feGaussianBlur>
            <feColorMatrix values="0 0 0 0 0   0 0 0 0 0   0 0 0 0 0  0 0 0 0.5 0" type="matrix" in="shadowBlurOuter1"></feColorMatrix>
        </filter>
        <rect id="path-23" x="0" y="0" width="125" height="46" rx="4"></rect>
        <filter x="-4.0%" y="-15.2%" width="111.2%" height="130.4%" filterUnits="objectBoundingBox" id="filter-24">
            <feOffset dx="2" dy="0" in="SourceAlpha" result="shadowOffsetOuter1"></feOffset>
            <feGaussianBlur stdDeviation="2" in="shadowOffsetOuter1" result="shadowBlurOuter1"></feGaussianBlur>
            <feColorMatrix values="0 0 0 0 0   0 0 0 0 0   0 0 0 0 0  0 0 0 0.5 0" type="matrix" in="shadowBlurOuter1"></feColorMatrix>
        </filter>
        <rect id="path-25" x="0" y="0" width="252" height="212" rx="4"></rect>
        <filter x="-2.0%" y="-3.3%" width="105.6%" height="106.6%" filterUnits="objectBoundingBox" id="filter-26">
            <feOffset dx="2" dy="0" in="SourceAlpha" result="shadowOffsetOuter1"></feOffset>
            <feGaussianBlur stdDeviation="2" in="shadowOffsetOuter1" result="shadowBlurOuter1"></feGaussianBlur>
            <feColorMatrix values="0 0 0 0 0   0 0 0 0 0   0 0 0 0 0  0 0 0 0.5 0" type="matrix" in="shadowBlurOuter1"></feColorMatrix>
        </filter>
        <rect id="path-27" x="0" y="0" width="63" height="32" rx="4"></rect>
        <filter x="-7.9%" y="-21.9%" width="122.2%" height="143.8%" filterUnits="objectBoundingBox" id="filter-28">
            <feOffset dx="2" dy="0" in="SourceAlpha" result="shadowOffsetOuter1"></feOffset>
            <feGaussianBlur stdDeviation="2" in="shadowOffsetOuter1" result="shadowBlurOuter1"></feGaussianBlur>
            <feColorMatrix values="0 0 0 0 0   0 0 0 0 0   0 0 0 0 0  0 0 0 0.5 0" type="matrix" in="shadowBlurOuter1"></feColorMatrix>
        </filter>
        <rect id="path-29" x="85" y="0" width="63" height="32" rx="4"></rect>
        <filter x="-7.9%" y="-21.9%" width="122.2%" height="143.8%" filterUnits="objectBoundingBox" id="filter-30">
            <feOffset dx="2" dy="0" in="SourceAlpha" result="shadowOffsetOuter1"></feOffset>
            <feGaussianBlur stdDeviation="2" in="shadowOffsetOuter1" result="shadowBlurOuter1"></feGaussianBlur>
            <feColorMatrix values="0 0 0 0 0   0 0 0 0 0   0 0 0 0 0  0 0 0 0.5 0" type="matrix" in="shadowBlurOuter1"></feColorMatrix>
        </filter>
        <rect id="path-31" x="0" y="118" width="231" height="19" rx="4"></rect>
        <filter x="-2.2%" y="-36.8%" width="106.1%" height="173.7%" filterUnits="objectBoundingBox" id="filter-32">
            <feOffset dx="2" dy="0" in="SourceAlpha" result="shadowOffsetOuter1"></feOffset>
            <feGaussianBlur stdDeviation="2" in="shadowOffsetOuter1" result="shadowBlurOuter1"></feGaussianBlur>
            <feColorMatrix values="0 0 0 0 0   0 0 0 0 0   0 0 0 0 0  0 0 0 0.5 0" type="matrix" in="shadowBlurOuter1"></feColorMatrix>
        </filter>
        <rect id="path-33" x="168" y="0" width="63" height="32" rx="4"></rect>
        <filter x="-7.9%" y="-21.9%" width="122.2%" height="143.8%" filterUnits="objectBoundingBox" id="filter-34">
            <feOffset dx="2" dy="0" in="SourceAlpha" result="shadowOffsetOuter1"></feOffset>
            <feGaussianBlur stdDeviation="2" in="shadowOffsetOuter1" result="shadowBlurOuter1"></feGaussianBlur>
            <feColorMatrix values="0 0 0 0 0   0 0 0 0 0   0 0 0 0 0  0 0 0 0.5 0" type="matrix" in="shadowBlurOuter1"></feColorMatrix>
        </filter>
        <rect id="path-35" x="0" y="0" width="125" height="46" rx="4"></rect>
        <filter x="-4.0%" y="-15.2%" width="111.2%" height="130.4%" filterUnits="objectBoundingBox" id="filter-36">
            <feOffset dx="2" dy="0" in="SourceAlpha" result="shadowOffsetOuter1"></feOffset>
            <feGaussianBlur stdDeviation="2" in="shadowOffsetOuter1" result="shadowBlurOuter1"></feGaussianBlur>
            <feColorMatrix values="0 0 0 0 0   0 0 0 0 0   0 0 0 0 0  0 0 0 0.5 0" type="matrix" in="shadowBlurOuter1"></feColorMatrix>
        </filter>
        <rect id="path-37" x="0" y="276" width="820" height="135" rx="4"></rect>
        <filter x="-0.6%" y="-5.2%" width="101.7%" height="110.4%" filterUnits="objectBoundingBox" id="filter-38">
            <feOffset dx="2" dy="0" in="SourceAlpha" result="shadowOffsetOuter1"></feOffset>
            <feGaussianBlur stdDeviation="2" in="shadowOffsetOuter1" result="shadowBlurOuter1"></feGaussianBlur>
            <feColorMatrix values="0 0 0 0 0   0 0 0 0 0   0 0 0 0 0  0 0 0 0.5 0" type="matrix" in="shadowBlurOuter1"></feColorMatrix>
        </filter>
        <rect id="path-39" x="0" y="-4.97379915e-14" width="144" height="64.3815789" rx="4"></rect>
        <filter x="-3.5%" y="-10.9%" width="109.7%" height="121.7%" filterUnits="objectBoundingBox" id="filter-40">
            <feOffset dx="2" dy="0" in="SourceAlpha" result="shadowOffsetOuter1"></feOffset>
            <feGaussianBlur stdDeviation="2" in="shadowOffsetOuter1" result="shadowBlurOuter1"></feGaussianBlur>
            <feColorMatrix values="0 0 0 0 0   0 0 0 0 0   0 0 0 0 0  0 0 0 0.5 0" type="matrix" in="shadowBlurOuter1"></feColorMatrix>
        </filter>
        <rect id="path-41" x="0" y="-4.97379915e-14" width="144" height="64.3815789" rx="4"></rect>
        <filter x="-3.5%" y="-10.9%" width="109.7%" height="121.7%" filterUnits="objectBoundingBox" id="filter-42">
            <feOffset dx="2" dy="0" in="SourceAlpha" result="shadowOffsetOuter1"></feOffset>
            <feGaussianBlur stdDeviation="2" in="shadowOffsetOuter1" result="shadowBlurOuter1"></feGaussianBlur>
            <feColorMatrix values="0 0 0 0 0   0 0 0 0 0   0 0 0 0 0  0 0 0 0.5 0" type="matrix" in="shadowBlurOuter1"></feColorMatrix>
        </filter>
        <rect id="path-43" x="0" y="-4.97379915e-14" width="144" height="64.3815789" rx="4"></rect>
        <filter x="-3.5%" y="-10.9%" width="109.7%" height="121.7%" filterUnits="objectBoundingBox" id="filter-44">
            <feOffset dx="2" dy="0" in="SourceAlpha" result="shadowOffsetOuter1"></feOffset>
            <feGaussianBlur stdDeviation="2" in="shadowOffsetOuter1" result="shadowBlurOuter1"></feGaussianBlur>
            <feColorMatrix values="0 0 0 0 0   0 0 0 0 0   0 0 0 0 0  0 0 0 0.5 0" type="matrix" in="shadowBlurOuter1"></feColorMatrix>
        </filter>
        <rect id="path-45" x="0" y="-4.97379915e-14" width="144" height="64.3815789" rx="4"></rect>
        <filter x="-3.5%" y="-10.9%" width="109.7%" height="121.7%" filterUnits="objectBoundingBox" id="filter-46">
            <feOffset dx="2" dy="0" in="SourceAlpha" result="shadowOffsetOuter1"></feOffset>
            <feGaussianBlur stdDeviation="2" in="shadowOffsetOuter1" result="shadowBlurOuter1"></feGaussianBlur>
            <feColorMatrix values="0 0 0 0 0   0 0 0 0 0   0 0 0 0 0  0 0 0 0.5 0" type="matrix" in="shadowBlurOuter1"></feColorMatrix>
        </filter>
    </defs>
    <g id="Page-1" stroke="none" stroke-width="1" fill="none" fill-rule="evenodd">
        <g id="space-based" transform="translate(2.000000, 4.000000)">
            <g id="Group-2">
                <g id="Rectangle">
                    <use fill="black" fill-opacity="1" filter="url(#filter-2)" xlink:href="#path-1"></use>
                    <use fill="#9B9B9B" fill-rule="evenodd" xlink:href="#path-1"></use>
                </g>
                <g id="Group" transform="translate(10.000000, 60.000000)">
                    <g id="Rectangle">
                        <use fill="black" fill-opacity="1" filter="url(#filter-4)" xlink:href="#path-3"></use>
                        <use fill="#4A4A4A" fill-rule="evenodd" xlink:href="#path-3"></use>
                    </g>
                    <g id="Rectangle">
                        <use fill="black" fill-opacity="1" filter="url(#filter-6)" xlink:href="#path-5"></use>
                        <use fill="#4A4A4A" fill-rule="evenodd" xlink:href="#path-5"></use>
                    </g>
                    <g id="Rectangle">
                        <use fill="black" fill-opacity="1" filter="url(#filter-8)" xlink:href="#path-7"></use>
                        <use fill="#4A4A4A" fill-rule="evenodd" xlink:href="#path-7"></use>
                    </g>
                    <g id="Rectangle">
                        <use fill="black" fill-opacity="1" filter="url(#filter-10)" xlink:href="#path-9"></use>
                        <use fill="#4A4A4A" fill-rule="evenodd" xlink:href="#path-9"></use>
                    </g>
                </g>
                <rect id="Rectangle" stroke="#4A4A4A" x="18" y="106" width="217" height="63"></rect>
                <g id="Group" transform="translate(102.000000, 114.000000)">
                    <g id="Rectangle">
                        <use fill="black" fill-opacity="1" filter="url(#filter-12)" xlink:href="#path-11"></use>
                        <use fill="#4A4A4A" fill-rule="evenodd" xlink:href="#path-11"></use>
                    </g>
                    <rect id="Rectangle" fill="#D8D8D8" x="10" y="7" width="20" height="7"></rect>
                    <rect id="Rectangle" fill="#D8D8D8" x="39" y="7" width="20" height="7"></rect>
                    <rect id="Rectangle" fill="#D8D8D8" x="68" y="7" width="20" height="7"></rect>
                    <rect id="Rectangle" fill="#D8D8D8" x="98" y="7" width="20" height="7"></rect>
                    <rect id="Rectangle" fill="#D8D8D8" x="10" y="20" width="20" height="7"></rect>
                    <rect id="Rectangle" fill="#D8D8D8" x="39" y="20" width="20" height="7"></rect>
                    <rect id="Rectangle" fill="#D8D8D8" x="68" y="20" width="20" height="7"></rect>
                    <rect id="Rectangle" fill="#D8D8D8" x="98" y="20" width="20" height="7"></rect>
                    <rect id="Rectangle" fill="#D8D8D8" x="10" y="32" width="20" height="7"></rect>
                    <rect id="Rectangle" fill="#D8D8D8" x="39" y="32" width="20" height="7"></rect>
                    <rect id="Rectangle" fill="#D8D8D8" x="68" y="32" width="20" height="7"></rect>
                    <rect id="Rectangle" fill="#D8D8D8" x="98" y="32" width="20" height="7"></rect>
                </g>
                <text id="processing-unit" font-family="Helvetica" font-size="24" font-weight="normal" fill="#FFFFFF">
                    <tspan x="44.7871094" y="32">processing unit</tspan>
                </text>
                <path d="M50,131 C60.4895833,131 69,127.945312 69,124.2 L69,120.8 C69,117.054688 60.4895833,114 50,114 C39.5104167,114 31,117.054688 31,120.8 L31,124.2 C31,127.945312 39.5104167,131 50,131 Z M50,140 C60.4895833,140 69,137.300469 69,133.99061 L69,130 C64.9179688,132.723005 57.4466146,133.99061 50,133.99061 C42.5533854,133.99061 35.0820312,132.723005 31,130 L31,133.99061 C31,137.300469 39.5104167,140 50,140 Z M50,150 C60.4895833,150 69,147.300469 69,143.99061 L69,140 C64.9179688,142.723005 57.4466146,143.99061 50,143.99061 C42.5533854,143.99061 35.0820312,142.723005 31,140 L31,143.99061 C31,147.300469 39.5104167,150 50,150 Z M50,160 C60.4895833,160 69,157.300469 69,153.99061 L69,150 C64.9179688,152.723005 57.4466146,153.99061 50,153.99061 C42.5533854,153.99061 35.0820312,152.723005 31,150 L31,153.99061 C31,157.300469 39.5104167,160 50,160 Z" id="database" fill="#4A4A4A" fill-rule="nonzero"></path>
                <path id="Line" d="M94,133 L103,137.5 L94,142 L94,138 L81,138 L81,142 L72,137.5 L81,133 L81,137 L94,137 L94,133 Z" fill="#000000" fill-rule="nonzero"></path>
            </g>
            <g id="Group-2" transform="translate(284.000000, 0.000000)">
                <g id="Rectangle">
                    <use fill="black" fill-opacity="1" filter="url(#filter-14)" xlink:href="#path-13"></use>
                    <use fill="#9B9B9B" fill-rule="evenodd" xlink:href="#path-13"></use>
                </g>
                <g id="Group" transform="translate(10.000000, 60.000000)">
                    <g id="Rectangle">
                        <use fill="black" fill-opacity="1" filter="url(#filter-16)" xlink:href="#path-15"></use>
                        <use fill="#4A4A4A" fill-rule="evenodd" xlink:href="#path-15"></use>
                    </g>
                    <g id="Rectangle">
                        <use fill="black" fill-opacity="1" filter="url(#filter-18)" xlink:href="#path-17"></use>
                        <use fill="#4A4A4A" fill-rule="evenodd" xlink:href="#path-17"></use>
                    </g>
                    <g id="Rectangle">
                        <use fill="black" fill-opacity="1" filter="url(#filter-20)" xlink:href="#path-19"></use>
                        <use fill="#4A4A4A" fill-rule="evenodd" xlink:href="#path-19"></use>
                    </g>
                    <g id="Rectangle">
                        <use fill="black" fill-opacity="1" filter="url(#filter-22)" xlink:href="#path-21"></use>
                        <use fill="#4A4A4A" fill-rule="evenodd" xlink:href="#path-21"></use>
                    </g>
                </g>
                <rect id="Rectangle" stroke="#4A4A4A" x="18" y="106" width="217" height="63"></rect>
                <g id="Group" transform="translate(102.000000, 114.000000)">
                    <g id="Rectangle">
                        <use fill="black" fill-opacity="1" filter="url(#filter-24)" xlink:href="#path-23"></use>
                        <use fill="#4A4A4A" fill-rule="evenodd" xlink:href="#path-23"></use>
                    </g>
                    <rect id="Rectangle" fill="#D8D8D8" x="10" y="7" width="20" height="7"></rect>
                    <rect id="Rectangle" fill="#D8D8D8" x="39" y="7" width="20" height="7"></rect>
                    <rect id="Rectangle" fill="#D8D8D8" x="68" y="7" width="20" height="7"></rect>
                    <rect id="Rectangle" fill="#D8D8D8" x="98" y="7" width="20" height="7"></rect>
                    <rect id="Rectangle" fill="#D8D8D8" x="10" y="20" width="20" height="7"></rect>
                    <rect id="Rectangle" fill="#D8D8D8" x="39" y="20" width="20" height="7"></rect>
                    <rect id="Rectangle" fill="#D8D8D8" x="68" y="20" width="20" height="7"></rect>
                    <rect id="Rectangle" fill="#D8D8D8" x="98" y="20" width="20" height="7"></rect>
                    <rect id="Rectangle" fill="#D8D8D8" x="10" y="32" width="20" height="7"></rect>
                    <rect id="Rectangle" fill="#D8D8D8" x="39" y="32" width="20" height="7"></rect>
                    <rect id="Rectangle" fill="#D8D8D8" x="68" y="32" width="20" height="7"></rect>
                    <rect id="Rectangle" fill="#D8D8D8" x="98" y="32" width="20" height="7"></rect>
                </g>
                <text id="processing-unit" font-family="Helvetica" font-size="24" font-weight="normal" fill="#FFFFFF">
                    <tspan x="45.7871094" y="32">processing unit</tspan>
                </text>
                <path d="M50,131 C60.4895833,131 69,127.945312 69,124.2 L69,120.8 C69,117.054688 60.4895833,114 50,114 C39.5104167,114 31,117.054688 31,120.8 L31,124.2 C31,127.945312 39.5104167,131 50,131 Z M50,140 C60.4895833,140 69,137.300469 69,133.99061 L69,130 C64.9179688,132.723005 57.4466146,133.99061 50,133.99061 C42.5533854,133.99061 35.0820312,132.723005 31,130 L31,133.99061 C31,137.300469 39.5104167,140 50,140 Z M50,150 C60.4895833,150 69,147.300469 69,143.99061 L69,140 C64.9179688,142.723005 57.4466146,143.99061 50,143.99061 C42.5533854,143.99061 35.0820312,142.723005 31,140 L31,143.99061 C31,147.300469 39.5104167,150 50,150 Z M50,160 C60.4895833,160 69,157.300469 69,153.99061 L69,150 C64.9179688,152.723005 57.4466146,153.99061 50,153.99061 C42.5533854,153.99061 35.0820312,152.723005 31,150 L31,153.99061 C31,157.300469 39.5104167,160 50,160 Z" id="database" fill="#4A4A4A" fill-rule="nonzero"></path>
                <path id="Line" d="M94,133 L103,137.5 L94,142 L94,138 L81,138 L81,142 L72,137.5 L81,133 L81,137 L94,137 L94,133 Z" fill="#000000" fill-rule="nonzero"></path>
            </g>
            <g id="Group-2" transform="translate(568.000000, 0.000000)">
                <g id="Rectangle">
                    <use fill="black" fill-opacity="1" filter="url(#filter-26)" xlink:href="#path-25"></use>
                    <use fill="#9B9B9B" fill-rule="evenodd" xlink:href="#path-25"></use>
                </g>
                <g id="Group" transform="translate(10.000000, 60.000000)">
                    <g id="Rectangle">
                        <use fill="black" fill-opacity="1" filter="url(#filter-28)" xlink:href="#path-27"></use>
                        <use fill="#4A4A4A" fill-rule="evenodd" xlink:href="#path-27"></use>
                    </g>
                    <g id="Rectangle">
                        <use fill="black" fill-opacity="1" filter="url(#filter-30)" xlink:href="#path-29"></use>
                        <use fill="#4A4A4A" fill-rule="evenodd" xlink:href="#path-29"></use>
                    </g>
                    <g id="Rectangle">
                        <use fill="black" fill-opacity="1" filter="url(#filter-32)" xlink:href="#path-31"></use>
                        <use fill="#4A4A4A" fill-rule="evenodd" xlink:href="#path-31"></use>
                    </g>
                    <g id="Rectangle">
                        <use fill="black" fill-opacity="1" filter="url(#filter-34)" xlink:href="#path-33"></use>
                        <use fill="#4A4A4A" fill-rule="evenodd" xlink:href="#path-33"></use>
                    </g>
                </g>
                <rect id="Rectangle" stroke="#4A4A4A" x="18" y="106" width="217" height="63"></rect>
                <g id="Group" transform="translate(102.000000, 114.000000)">
                    <g id="Rectangle">
                        <use fill="black" fill-opacity="1" filter="url(#filter-36)" xlink:href="#path-35"></use>
                        <use fill="#4A4A4A" fill-rule="evenodd" xlink:href="#path-35"></use>
                    </g>
                    <rect id="Rectangle" fill="#D8D8D8" x="10" y="7" width="20" height="7"></rect>
                    <rect id="Rectangle" fill="#D8D8D8" x="39" y="7" width="20" height="7"></rect>
                    <rect id="Rectangle" fill="#D8D8D8" x="68" y="7" width="20" height="7"></rect>
                    <rect id="Rectangle" fill="#D8D8D8" x="98" y="7" width="20" height="7"></rect>
                    <rect id="Rectangle" fill="#D8D8D8" x="10" y="20" width="20" height="7"></rect>
                    <rect id="Rectangle" fill="#D8D8D8" x="39" y="20" width="20" height="7"></rect>
                    <rect id="Rectangle" fill="#D8D8D8" x="68" y="20" width="20" height="7"></rect>
                    <rect id="Rectangle" fill="#D8D8D8" x="98" y="20" width="20" height="7"></rect>
                    <rect id="Rectangle" fill="#D8D8D8" x="10" y="32" width="20" height="7"></rect>
                    <rect id="Rectangle" fill="#D8D8D8" x="39" y="32" width="20" height="7"></rect>
                    <rect id="Rectangle" fill="#D8D8D8" x="68" y="32" width="20" height="7"></rect>
                    <rect id="Rectangle" fill="#D8D8D8" x="98" y="32" width="20" height="7"></rect>
                </g>
                <text id="processing-unit" font-family="Helvetica" font-size="24" font-weight="normal" fill="#FFFFFF">
                    <tspan x="45.7871094" y="30">processing unit</tspan>
                </text>
                <path d="M50,131 C60.4895833,131 69,127.945312 69,124.2 L69,120.8 C69,117.054688 60.4895833,114 50,114 C39.5104167,114 31,117.054688 31,120.8 L31,124.2 C31,127.945312 39.5104167,131 50,131 Z M50,140 C60.4895833,140 69,137.300469 69,133.99061 L69,130 C64.9179688,132.723005 57.4466146,133.99061 50,133.99061 C42.5533854,133.99061 35.0820312,132.723005 31,130 L31,133.99061 C31,137.300469 39.5104167,140 50,140 Z M50,150 C60.4895833,150 69,147.300469 69,143.99061 L69,140 C64.9179688,142.723005 57.4466146,143.99061 50,143.99061 C42.5533854,143.99061 35.0820312,142.723005 31,140 L31,143.99061 C31,147.300469 39.5104167,150 50,150 Z M50,160 C60.4895833,160 69,157.300469 69,153.99061 L69,150 C64.9179688,152.723005 57.4466146,153.99061 50,153.99061 C42.5533854,153.99061 35.0820312,152.723005 31,150 L31,153.99061 C31,157.300469 39.5104167,160 50,160 Z" id="database" fill="#4A4A4A" fill-rule="nonzero"></path>
                <path id="Line" d="M94,133 L103,137.5 L94,142 L94,138 L81,138 L81,142 L72,137.5 L81,133 L81,137 L94,137 L94,133 Z" fill="#000000" fill-rule="nonzero"></path>
            </g>
            <g id="Rectangle">
                <use fill="black" fill-opacity="1" filter="url(#filter-38)" xlink:href="#path-37"></use>
                <use fill="#9B9B9B" fill-rule="evenodd" xlink:href="#path-37"></use>
            </g>
            <g id="Group-6" transform="translate(61.000000, 334.000000)">
                <g id="Rectangle">
                    <use fill="black" fill-opacity="1" filter="url(#filter-40)" xlink:href="#path-39"></use>
                    <use fill="#4A4A4A" fill-rule="evenodd" xlink:href="#path-39"></use>
                </g>
                <text id="message-grid" font-family="Helvetica" font-size="24" font-weight="normal" fill="#FFFFFF">
                    <tspan x="23.3085938" y="26">message</tspan>
                    <tspan x="51.9902344" y="55">grid</tspan>
                </text>
            </g>
            <g id="Group-5" transform="translate(246.000000, 334.000000)">
                <g id="Rectangle">
                    <use fill="black" fill-opacity="1" filter="url(#filter-42)" xlink:href="#path-41"></use>
                    <use fill="#4A4A4A" fill-rule="evenodd" xlink:href="#path-41"></use>
                </g>
                <text id="data-grid" font-family="Helvetica" font-size="24" font-weight="normal" fill="#FFFFFF">
                    <tspan x="25.3007812" y="41">data grid</tspan>
                </text>
            </g>
            <g id="Group-4" transform="translate(431.000000, 334.000000)">
                <g id="Rectangle">
                    <use fill="black" fill-opacity="1" filter="url(#filter-44)" xlink:href="#path-43"></use>
                    <use fill="#4A4A4A" fill-rule="evenodd" xlink:href="#path-43"></use>
                </g>
                <text id="processing-grid" font-family="Helvetica" font-size="24" font-weight="normal" fill="#FFFFFF">
                    <tspan x="14.46875" y="26">processing</tspan>
                    <tspan x="52.4902344" y="55">grid</tspan>
                </text>
            </g>
            <g id="Group-3" transform="translate(616.000000, 334.000000)">
                <g id="Rectangle">
                    <use fill="black" fill-opacity="1" filter="url(#filter-46)" xlink:href="#path-45"></use>
                    <use fill="#4A4A4A" fill-rule="evenodd" xlink:href="#path-45"></use>
                </g>
                <text id="deployment-manager" font-family="Helvetica" font-size="24" font-weight="normal" fill="#FFFFFF">
                    <tspan x="10.4609375" y="26">deployment</tspan>
                    <tspan x="25.1386719" y="55">manager</tspan>
                </text>
            </g>
            <text id="virtualized-middlewa" font-family="Helvetica" font-size="24" font-weight="normal" fill="#FFFFFF">
                <tspan x="291.283203" y="312">virtualized middleware</tspan>
            </text>
            <path id="Line-2" d="M126,212 L137.854328,236.072285 L127.854,236.011 L127.645,270.512 L137.645231,270.573167 L125.5,294.5 L113.645672,270.427715 L123.645,270.488 L123.854,235.987 L113.854769,235.926833 L126,212 Z" fill="#000000" fill-rule="nonzero"></path>
            <path id="Line-2" d="M410.75,212.25 L422.604328,236.322285 L412.604,236.261 L412.395,270.762 L422.395231,270.823167 L410.25,294.75 L398.395672,270.677715 L408.395,270.738 L408.604,236.237 L398.604769,236.176833 L410.75,212.25 Z" fill="#000000" fill-rule="nonzero"></path>
            <path id="Line-2" d="M695.75,212.25 L707.604328,236.322285 L697.604,236.261 L697.395,270.762 L707.395231,270.823167 L695.25,294.75 L683.395672,270.677715 L693.395,270.738 L693.604,236.237 L683.604769,236.176833 L695.75,212.25 Z" fill="#000000" fill-rule="nonzero"></path>
            <path id="Line-2" d="M556.5,178.5 L575.5,188 L556.5,197.5 L556.5,189.5 L547.5,189.5 L547.5,197.5 L528.5,188 L547.5,178.5 L547.5,186.5 L556.5,186.5 L556.5,178.5 Z" fill="#000000" fill-rule="nonzero"></path>
            <path id="Line-2" d="M273.75,178.75 L292.75,188.25 L273.75,197.75 L273.75,189.75 L264.75,189.75 L264.75,197.75 L245.75,188.25 L264.75,178.75 L264.75,186.75 L273.75,186.75 L273.75,178.75 Z" fill="#000000" fill-rule="nonzero"></path>
        </g>
    </g>
</svg>