<?xml version="1.0" encoding="UTF-8"?>
<svg width="1742px" height="960px" viewBox="0 0 1742 960" version="1.1" xmlns="http://www.w3.org/2000/svg" xmlns:xlink="http://www.w3.org/1999/xlink">
    <!-- Generator: Sketch 62 (91390) - https://sketch.com -->
    <title>dsls</title>
    <desc>Created with Sketch.</desc>
    <g id="Page-1" stroke="none" stroke-width="1" fill="none" fill-rule="evenodd">
        <g id="dsls">
            <rect id="Rectangle" fill="#FFFFFF" x="0" y="0" width="1742" height="960"></rect>
            <rect id="Rectangle" stroke="#979797" fill="#D8D8D8" x="26" y="190" width="308" height="64" rx="4"></rect>
            <rect id="Rectangle" stroke="#979797" fill="#D8D8D8" x="649" y="708" width="308" height="64" rx="4"></rect>
            <text id="Guarding" font-family="PingFangSC-Regular, PingFang SC" font-size="24" font-weight="normal" fill="#000000">
                <tspan x="752" y="749">Guarding</tspan>
            </text>
            <rect id="Rectangle" stroke="#979797" fill="#D8D8D8" x="649" y="832" width="308" height="64" rx="4"></rect>
            <text id="Modeling" font-family="PingFangSC-Regular, PingFang SC" font-size="24" font-weight="normal" fill="#000000">
                <tspan x="752" y="873">Modeling</tspan>
            </text>
            <g id="Group" transform="translate(649.000000, 191.000000)">
                <rect id="Rectangle" stroke="#979797" fill="#D8D8D8" x="0" y="0" width="308" height="199" rx="4"></rect>
                <rect id="Rectangle" stroke="#979797" fill="#9B9B9B" x="20" y="55" width="268" height="57" rx="4"></rect>
                <rect id="Rectangle" stroke="#979797" fill="#9B9B9B" x="20" y="130" width="268" height="57" rx="4"></rect>
                <text id="Unflow" font-family="PingFangSC-Regular, PingFang SC" font-size="24" font-weight="normal" fill="#000000">
                    <tspan x="115" y="32">Unflow</tspan>
                </text>
                <text id="UI-描述-DSL" font-family="PingFangSC-Regular, PingFang SC" font-size="24" font-weight="normal" fill="#FFFFFF">
                    <tspan x="87" y="92">UI 描述 DSL</tspan>
                </text>
                <text id="UI-交互-DSL" font-family="PingFangSC-Regular, PingFang SC" font-size="24" font-weight="normal" fill="#FFFFFF">
                    <tspan x="87" y="167">UI 交互 DSL</tspan>
                </text>
            </g>
            <g id="Group-2" transform="translate(649.000000, 450.000000)">
                <rect id="Rectangle" stroke="#979797" fill="#D8D8D8" x="0" y="0" width="308" height="199" rx="4"></rect>
                <rect id="Rectangle" stroke="#979797" fill="#9B9B9B" x="20" y="55" width="268" height="57" rx="4"></rect>
                <rect id="Rectangle" stroke="#979797" fill="#9B9B9B" x="20" y="130" width="268" height="57" rx="4"></rect>
                <text id="Forming" font-family="PingFangSC-Regular, PingFang SC" font-size="24" font-weight="normal" fill="#000000">
                    <tspan x="109" y="29">Forming</tspan>
                </text>
                <text id="架构描述-DSL" font-family="PingFangSC-Regular, PingFang SC" font-size="24" font-weight="normal" fill="#FFFFFF">
                    <tspan x="79" y="92">架构描述 DSL</tspan>
                </text>
                <text id="领域建模-DSL" font-family="PingFangSC-Regular, PingFang SC" font-size="24" font-weight="normal" fill="#FFFFFF">
                    <tspan x="79" y="167">领域建模 DSL</tspan>
                </text>
            </g>
            <g id="Group-2" transform="translate(1272.000000, 190.000000)">
                <rect id="Rectangle" stroke="#979797" fill="#D8D8D8" x="0" y="0" width="308" height="360" rx="4"></rect>
                <rect id="Rectangle" stroke="#979797" fill="#000000" x="20" y="55" width="268" height="57" rx="4"></rect>
                <rect id="Rectangle" stroke="#979797" fill="#000000" x="20" y="130" width="268" height="57" rx="4"></rect>
                <rect id="Rectangle" stroke="#979797" fill="#000000" x="21" y="205" width="268" height="57" rx="4"></rect>
                <rect id="Rectangle" stroke="#979797" fill="#000000" x="20" y="280" width="268" height="57" rx="4"></rect>
                <text id="源码" font-family="PingFangSC-Regular, PingFang SC" font-size="24" font-weight="normal" fill="#000000">
                    <tspan x="131" y="29">源码</tspan>
                </text>
                <text id="UI-组件库" font-family="PingFangSC-Regular, PingFang SC" font-size="24" font-weight="normal" fill="#FFFFFF">
                    <tspan x="104" y="92">UI 组件库</tspan>
                </text>
                <text id="UI-代码" font-family="PingFangSC-Regular, PingFang SC" font-size="24" font-weight="normal" fill="#FFFFFF">
                    <tspan x="115" y="167">UI 代码</tspan>
                </text>
                <text id="模型代码" font-family="PingFangSC-Regular, PingFang SC" font-size="24" font-weight="normal" fill="#FFFFFF">
                    <tspan x="115" y="317">模型代码</tspan>
                </text>
                <text id="其它（选定）" font-family="PingFangSC-Regular, PingFang SC" font-size="24" font-weight="normal" fill="#FFFFFF">
                    <tspan x="96" y="242">其它（选定）</tspan>
                </text>
            </g>
            <g id="Group-3" transform="translate(980.000000, 63.000000)">
                <rect id="Rectangle" stroke="#979797" fill="#000000" x="0" y="0" width="268" height="57" rx="4"></rect>
                <text id="UI-原型图" font-family="PingFangSC-Regular, PingFang SC" font-size="24" font-weight="normal" fill="#FFFFFF">
                    <tspan x="83" y="37">UI 原型图</tspan>
                </text>
            </g>
            <text id="Story" font-family="PingFangSC-Regular, PingFang SC" font-size="24" font-weight="normal" fill="#000000">
                <tspan x="150" y="231">Story</tspan>
            </text>
            <text id="需求" font-family="PingFangSC-Semibold, PingFang SC" font-size="24" font-weight="500" fill="#000000">
                <tspan x="156" y="80">需求</tspan>
            </text>
            <text id="设计" font-family="PingFangSC-Semibold, PingFang SC" font-size="24" font-weight="500" fill="#000000">
                <tspan x="796" y="80">设计</tspan>
            </text>
            <text id="架构设计" font-family="PingFangSC-Semibold, PingFang SC" font-size="24" font-weight="500" fill="#000000">
                <tspan x="462" y="556">架构设计</tspan>
            </text>
            <text id="编码" font-family="PingFangSC-Semibold, PingFang SC" font-size="24" font-weight="500" fill="#000000">
                <tspan x="1407" y="88">编码</tspan>
            </text>
            <path id="Line" d="M333.005386,217.994633 L334.505376,218.00001 L474.005376,218.50001 L475.5,218.505367 L475.5,348.488 L654.503628,347.115018 L664.762,347.036 L653.70605,340.928318 L652.393083,340.202978 L653.843762,337.577044 L655.156729,338.302384 L671.22531,347.179361 L673.559474,348.468853 L671.245371,349.79401 L655.314894,358.916504 L654.013211,359.661905 L652.52241,357.058539 L653.824092,356.313139 L664.785,350.036 L654.526645,350.114929 L474.011509,351.499956 L472.5,351.511553 L472.5,221.494 L334.494624,220.99999 L332.994633,220.994614 L333.005386,217.994633 Z" fill="#D0021B" fill-rule="nonzero"></path>
            <path id="Line-2" d="M811.268409,433.361503 L811.988726,434.677232 L818.054,445.756 L818.149557,437.479909 L818.166797,435.980008 L821.166599,436.014489 L821.149359,437.51439 L821.054,445.79 L827.372983,434.854063 L828.123353,433.555238 L830.721002,435.055977 L829.970633,436.354802 L820.787331,452.250303 L819.453341,454.559325 L818.172777,452.220251 L809.357268,436.117866 L808.636951,434.802137 L811.268409,433.361503 Z M818.350693,419.981065 L821.350495,420.015545 L821.333255,421.515446 L821.21832,431.514786 L821.20108,433.014687 L818.201278,432.980206 L818.218518,431.480305 L818.333453,421.480966 L818.350693,419.981065 Z M821.51734,405.5 L821.499901,407.01724 L821.402216,415.515843 L821.384976,417.015744 L818.385174,416.981263 L818.402414,415.481362 L818.482,408.5 L816.999164,408.5 L816.999164,405.5 L821.51734,405.5 Z M445.999164,405.5 L445.999164,408.5 L432.999164,408.5 L432.999164,405.5 L445.999164,405.5 Z M477.999164,405.5 L477.999164,408.5 L464.999164,408.5 L464.999164,405.5 L477.999164,405.5 Z M797.999164,405.5 L797.999164,408.5 L784.999164,408.5 L784.999164,405.5 L797.999164,405.5 Z M781.999164,405.5 L781.999164,408.5 L768.999164,408.5 L768.999164,405.5 L781.999164,405.5 Z M765.999164,405.5 L765.999164,408.5 L752.999164,408.5 L752.999164,405.5 L765.999164,405.5 Z M749.999164,405.5 L749.999164,408.5 L736.999164,408.5 L736.999164,405.5 L749.999164,405.5 Z M166.523422,399.994186 L169.523406,400.00422 L169.518389,401.504211 L169.504,405.499 L172.499164,405.5 L173.999164,405.5 L173.999164,408.5 L172.499164,408.5 L168,408.5 L166.494975,408.5 L166.500008,406.994983 L166.518406,401.494178 L166.523422,399.994186 Z M733.999164,405.5 L733.999164,408.5 L720.999164,408.5 L720.999164,405.5 L733.999164,405.5 Z M189.999164,405.5 L189.999164,408.5 L176.999164,408.5 L176.999164,405.5 L189.999164,405.5 Z M205.999164,405.5 L205.999164,408.5 L192.999164,408.5 L192.999164,405.5 L205.999164,405.5 Z M221.999164,405.5 L221.999164,408.5 L208.999164,408.5 L208.999164,405.5 L221.999164,405.5 Z M237.999164,405.5 L237.999164,408.5 L224.999164,408.5 L224.999164,405.5 L237.999164,405.5 Z M253.999164,405.5 L253.999164,408.5 L240.999164,408.5 L240.999164,405.5 L253.999164,405.5 Z M269.999164,405.5 L269.999164,408.5 L256.999164,408.5 L256.999164,405.5 L269.999164,405.5 Z M285.999164,405.5 L285.999164,408.5 L272.999164,408.5 L272.999164,405.5 L285.999164,405.5 Z M301.999164,405.5 L301.999164,408.5 L288.999164,408.5 L288.999164,405.5 L301.999164,405.5 Z M317.999164,405.5 L317.999164,408.5 L304.999164,408.5 L304.999164,405.5 L317.999164,405.5 Z M333.999164,405.5 L333.999164,408.5 L320.999164,408.5 L320.999164,405.5 L333.999164,405.5 Z M349.999164,405.5 L349.999164,408.5 L336.999164,408.5 L336.999164,405.5 L349.999164,405.5 Z M365.999164,405.5 L365.999164,408.5 L352.999164,408.5 L352.999164,405.5 L365.999164,405.5 Z M381.999164,405.5 L381.999164,408.5 L368.999164,408.5 L368.999164,405.5 L381.999164,405.5 Z M397.999164,405.5 L397.999164,408.5 L384.999164,408.5 L384.999164,405.5 L397.999164,405.5 Z M413.999164,405.5 L413.999164,408.5 L400.999164,408.5 L400.999164,405.5 L413.999164,405.5 Z M429.999164,405.5 L429.999164,408.5 L416.999164,408.5 L416.999164,405.5 L429.999164,405.5 Z M461.999164,405.5 L461.999164,408.5 L448.999164,408.5 L448.999164,405.5 L461.999164,405.5 Z M813.999164,405.5 L813.999164,408.5 L800.999164,408.5 L800.999164,405.5 L813.999164,405.5 Z M493.999164,405.5 L493.999164,408.5 L480.999164,408.5 L480.999164,405.5 L493.999164,405.5 Z M509.999164,405.5 L509.999164,408.5 L496.999164,408.5 L496.999164,405.5 L509.999164,405.5 Z M525.999164,405.5 L525.999164,408.5 L512.999164,408.5 L512.999164,405.5 L525.999164,405.5 Z M541.999164,405.5 L541.999164,408.5 L528.999164,408.5 L528.999164,405.5 L541.999164,405.5 Z M557.999164,405.5 L557.999164,408.5 L544.999164,408.5 L544.999164,405.5 L557.999164,405.5 Z M573.999164,405.5 L573.999164,408.5 L560.999164,408.5 L560.999164,405.5 L573.999164,405.5 Z M589.999164,405.5 L589.999164,408.5 L576.999164,408.5 L576.999164,405.5 L589.999164,405.5 Z M605.999164,405.5 L605.999164,408.5 L592.999164,408.5 L592.999164,405.5 L605.999164,405.5 Z M621.999164,405.5 L621.999164,408.5 L608.999164,408.5 L608.999164,405.5 L621.999164,405.5 Z M637.999164,405.5 L637.999164,408.5 L624.999164,408.5 L624.999164,405.5 L637.999164,405.5 Z M653.999164,405.5 L653.999164,408.5 L640.999164,408.5 L640.999164,405.5 L653.999164,405.5 Z M669.999164,405.5 L669.999164,408.5 L656.999164,408.5 L656.999164,405.5 L669.999164,405.5 Z M685.999164,405.5 L685.999164,408.5 L672.999164,408.5 L672.999164,405.5 L685.999164,405.5 Z M701.999164,405.5 L701.999164,408.5 L688.999164,408.5 L688.999164,405.5 L701.999164,405.5 Z M717.999164,405.5 L717.999164,408.5 L704.999164,408.5 L704.999164,405.5 L717.999164,405.5 Z M166.576934,383.994276 L169.576917,384.004309 L169.5719,385.504301 L169.538456,395.504245 L169.533439,397.004237 L166.533456,396.994203 L166.538473,395.494212 L166.571917,385.494267 L166.576934,383.994276 Z M166.630445,367.994365 L169.630428,368.004399 L169.625412,369.50439 L169.591967,379.504334 L169.58695,381.004326 L166.586967,380.994293 L166.591984,379.494301 L166.625429,369.494357 L166.630445,367.994365 Z M166.683957,351.994455 L169.68394,352.004488 L169.678923,353.50448 L169.645479,363.504424 L169.640462,365.004415 L166.640479,364.994382 L166.645495,363.49439 L166.67894,353.494446 L166.683957,351.994455 Z M166.737468,335.994544 L169.737451,336.004578 L169.732435,337.504569 L169.69899,347.504513 L169.693973,349.004505 L166.69399,348.994472 L166.699007,347.49448 L166.732451,337.494536 L166.737468,335.994544 Z M166.790979,319.994634 L169.790963,320.004667 L169.785946,321.504659 L169.752501,331.504603 L169.747485,333.004594 L166.747501,332.994561 L166.752518,331.494569 L166.785963,321.494625 L166.790979,319.994634 Z M166.844491,303.994723 L169.844474,304.004757 L169.839457,305.504748 L169.806013,315.504692 L169.800996,317.004684 L166.801013,316.994651 L166.80603,315.494659 L166.839474,305.494715 L166.844491,303.994723 Z M166.898002,287.994813 L169.897985,288.004846 L169.892969,289.504838 L169.859524,299.504782 L169.854507,301.004773 L166.854524,300.99474 L166.859541,299.494748 L166.892986,289.494804 L166.898002,287.994813 Z M166.951514,271.994902 L169.951497,272.004936 L169.94648,273.504927 L169.913036,283.504871 L169.908019,285.004863 L166.908036,284.99483 L166.913052,283.494838 L166.946497,273.494894 L166.951514,271.994902 Z M167.005025,255.994992 L170.005008,256.005025 L169.999992,257.505017 L169.966547,267.504961 L169.96153,269.004952 L166.961547,268.994919 L166.966564,267.494927 L167.000008,257.494983 L167.005025,255.994992 Z" fill="#979797" fill-rule="nonzero"></path>
            <path id="Line-3" d="M1277.89707,262.50103 L1279.20649,263.232746 L1295.23171,272.187767 L1297.55958,273.488597 L1295.23906,274.802483 L1279.2644,283.847392 L1277.95911,284.586453 L1276.48099,281.975868 L1277.78628,281.236807 L1288.777,275.013 L1278.50976,275.042113 L952.498668,275.957875 L942.229,275.986 L953.256938,282.148406 L954.566362,282.880123 L953.102929,285.49897 L951.793505,284.767254 L935.768287,275.812233 L933.440423,274.511403 L935.760943,273.197517 L951.735599,264.152608 L953.040891,263.413547 L954.519014,266.024132 L953.213721,266.763193 L942.222,272.986 L952.490241,272.957887 L1278.50133,272.042125 L1288.77,272.013 L1277.74306,265.851594 L1276.43364,265.119877 L1277.89707,262.50103 Z" fill="#4A90E2" fill-rule="nonzero"></path>
            <path id="Line-3" d="M1277.92803,339.457245 L1279.23539,340.192637 L1295.23539,349.192637 L1297.55959,350.5 L1295.23539,351.807363 L1279.23539,360.807363 L1277.92803,361.542755 L1276.45724,358.928029 L1277.76461,358.192637 L1288.773,352 L942.227,352 L953.235392,358.192637 L954.542755,358.928029 L953.071971,361.542755 L951.764608,360.807363 L935.764608,351.807363 L933.440407,350.5 L935.764608,349.192637 L951.764608,340.192637 L953.071971,339.457245 L954.542755,342.071971 L953.235392,342.807363 L942.224,349 L1288.773,349 L1277.76461,342.807363 L1276.45724,342.071971 L1277.92803,339.457245 Z" fill="#D0021B" fill-rule="nonzero"></path>
            <path id="Line-3" d="M1426.52619,527.440491 L1427.81853,529.773079 L1436.71512,545.830809 L1437.44206,547.142889 L1434.8179,548.596774 L1434.09096,547.284693 L1427.969,536.235 L1427.90328,546.496947 L1427.49997,609.009677 L1427.49032,610.504583 L1425.99539,610.499993 L952.489333,609.046034 L942.221,609.014 L953.211697,615.240918 L954.516796,615.98032 L953.03799,618.590519 L951.732891,617.851116 L935.760602,608.802028 L933.440426,607.487535 L935.768631,606.187314 L951.796191,597.236486 L953.105806,596.505112 L954.568554,599.124343 L953.258939,599.855717 L942.23,606.014 L952.498545,606.046048 L1424.51,607.495 L1424.90334,546.477593 L1424.969,536.217 L1418.70601,547.185436 L1417.9622,548.488027 L1415.35701,547.000405 L1416.10082,545.697814 L1425.20386,529.75621 L1426.52619,527.440491 Z" fill="#417505" fill-rule="nonzero"></path>
            <path id="Line-4" d="M1256.88551,359.51745 L1258.1957,360.247789 L1274.23033,369.185946 L1276.55956,370.484326 L1274.24043,371.800653 L1258.27529,380.862362 L1256.97078,381.602796 L1255.48991,378.993767 L1256.79443,378.253333 L1267.781,372.017 L1257.51341,372.057874 L1144.5,372.493 L1144.5,741.495962 L1143.00404,741.499995 L957.504043,741.999995 L956.004049,742.004038 L955.995962,739.004049 L957.495957,739.000005 L1141.5,738.504 L1141.5,369.50578 L1142.99421,369.500011 L1257.50183,369.057897 L1267.766,369.017 L1256.73502,362.868175 L1255.42483,362.137836 L1256.88551,359.51745 Z" fill="#28829D" fill-rule="nonzero"></path>
            <path id="Line-5" d="M1596.12004,359.525349 L1597.5794,362.146474 L1596.26883,362.876149 L1585.233,369.02 L1595.49793,369.065479 L1695.00655,369.500014 L1696.5,369.506536 L1696.5,866.501017 L1694.99898,866.5 L972.497644,866.010168 L962.225,866.003 L973.230173,872.203303 L974.537037,872.939581 L973.064481,875.55331 L971.757617,874.817032 L955.763722,865.806186 L953.440408,864.497248 L955.765495,863.19146 L971.771593,854.20231 L973.079454,853.467805 L974.548465,856.083528 L973.240604,856.818033 L962.226,863.003 L972.499678,863.010169 L1693.5,863.499 L1693.5,372.492 L1595.48483,372.06545 L1585.218,372.02 L1596.20165,378.261276 L1597.50579,379.00237 L1596.0236,381.610649 L1594.71946,380.869555 L1578.75892,371.799773 L1576.44045,370.482273 L1578.77033,369.185071 L1594.80948,360.255025 L1596.12004,359.525349 Z" fill="#979797" fill-rule="nonzero"></path>
            <path id="Line-6" d="M1115.53337,116.440544 L1116.82158,118.775412 L1125.68978,134.848842 L1126.4144,136.162205 L1123.78767,137.611449 L1123.06305,136.298085 L1116.96,125.237 L1116.87679,135.496115 L1115.49995,303.012328 L1115.48776,304.495254 L1114.00479,304.499992 L972.498486,304.952089 L962.231,304.985 L973.259889,311.142325 L974.569595,311.873536 L973.107172,314.492948 L971.797466,313.761737 L955.768794,304.812901 L953.440427,303.51297 L955.76044,302.198188 L971.731605,293.147116 L973.036612,292.407551 L974.515742,295.017565 L973.210735,295.75713 L962.221,301.985 L972.488901,301.952104 L1112.512,301.505 L1113.8769,135.471458 L1113.96,125.214 L1107.6783,136.171635 L1106.93218,137.47291 L1104.32963,135.980686 L1105.07575,134.679411 L1114.20694,118.753922 L1115.53337,116.440544 Z" fill="#000000" fill-rule="nonzero"></path>
            <path id="Line-7" d="M169,119 L169,172 L177,172 L167.5,191 L158,172 L166,172 L166,119 L169,119 Z" fill="#979797" fill-rule="nonzero"></path>
            <path id="Line-7" d="M821.5,118.5 L821.5,171.5 L829.5,171.5 L820,190.5 L810.5,171.5 L818.5,171.5 L818.5,118.5 L821.5,118.5 Z" fill="#979797" fill-rule="nonzero"></path>
            <path id="Line-7" d="M615.5,704.5 L615.5,757.5 L623.5,757.5 L614,776.5 L604.5,757.5 L612.5,757.5 L612.5,704.5 L615.5,704.5 Z" fill="#979797" fill-rule="nonzero"></path>
            <path id="Line-7" d="M615.5,513.5 L615.5,566.5 L623.5,566.5 L614,585.5 L604.5,566.5 L612.5,566.5 L612.5,513.5 L615.5,513.5 Z" fill="#979797" fill-rule="nonzero"></path>
            <path id="Line-7" d="M1432.5,118.5 L1432.5,171.5 L1440.5,171.5 L1431,190.5 L1421.5,171.5 L1429.5,171.5 L1429.5,118.5 L1432.5,118.5 Z" fill="#979797" fill-rule="nonzero"></path>
            <text id="Atom-Design" font-family="PingFangSC-Semibold, PingFang SC" font-size="16" font-weight="500" fill="#000000">
                <tspan x="1152" y="308">Atom Design</tspan>
            </text>
            <text id="（待设计）" font-family="PingFangSC-Semibold, PingFang SC" font-size="16" font-weight="500" fill="#000000">
                <tspan x="222" y="390">（待设计）</tspan>
            </text>
            <text id="架构守护" font-family="PingFangSC-Semibold, PingFang SC" font-size="16" font-weight="500" fill="#000000">
                <tspan x="1024" y="725">架构守护</tspan>
            </text>
            <text id="模型生成和转换" font-family="PingFangSC-Semibold, PingFang SC" font-size="16" font-weight="500" fill="#000000">
                <tspan x="1167" y="635">模型生成和转换</tspan>
            </text>
            <text id="代码转换模型" font-family="PingFangSC-Semibold, PingFang SC" font-size="16" font-weight="500" fill="#000000">
                <tspan x="1370" y="848">代码转换模型</tspan>
            </text>
        </g>
    </g>
</svg>